<?xml version="1.0" encoding="UTF-8" standalone="no"?>
<!-- Created with Inkscape (http://www.inkscape.org/) -->

<svg
   width="41.658875mm"
   height="41.658859mm"
   viewBox="0 0 41.658875 41.658859"
   version="1.1"
   id="svg1"
   xmlns="http://www.w3.org/2000/svg"
   xmlns:svg="http://www.w3.org/2000/svg">
  <defs
     id="defs1" />
  <g
     id="layer1"
     transform="translate(-83.094697,-105.92844)">
    <path
       id="text7-8-7"
       style="font-size:45.5274px;line-height:1.25;font-family:'Libre Caslon Text';-inkscape-font-specification:'Libre Caslon Text, Normal';text-align:center;letter-spacing:9.74725px;text-anchor:middle;display:inline;fill:#660430;fill-opacity:1;stroke-width:0.248222"
       d="m 91.356501,135.48773 0.09661,-0.0971 0.886526,0.88273 -1.44146,3.55001 0.02103,0.021 3.543768,-1.4567 0.882283,0.87853 -0.09661,0.0971 -0.45558,-0.29389 -2.883543,2.89593 0.295853,0.45433 -0.09661,0.0971 -1.19892,-1.19377 0.09661,-0.0971 0.459804,0.29812 2.580899,-2.592 -0.01604,-0.0161 -3.998385,1.61775 -0.114078,-0.11337 1.638476,-4.00116 -0.01783,-0.016 -2.597707,2.60888 0.295853,0.45431 -0.09661,0.0971 -0.92451,-0.92055 0.09661,-0.0971 0.459822,0.2981 2.883525,-2.89593 z m 3.8978,7.24967 c -0.159708,0.33309 -0.194627,0.63122 -0.104987,0.8944 0.09501,0.26129 0.298224,0.46661 0.609852,0.61593 0.193397,0.0927 0.37724,0.14563 0.551547,0.15864 0.174325,0.0125 0.326619,-0.016 0.456899,-0.085 0.117999,-0.0624 0.234287,-0.17183 0.348881,-0.32826 0.114613,-0.1565 0.240633,-0.37795 0.3779,-0.66449 l 1.101937,-2.29932 -0.429217,-0.33122 0.05918,-0.1237 1.176497,0.56385 -0.05918,0.1237 -0.532421,-0.12958 -1.210061,2.52496 c -0.108195,0.22564 -0.215232,0.40774 -0.321271,0.54629 -0.106056,0.1385 -0.219724,0.24261 -0.341163,0.31214 -0.177712,0.10428 -0.389183,0.15044 -0.634521,0.13868 -0.243609,-0.016 -0.501514,-0.0884 -0.773714,-0.21885 -0.275782,-0.13226 -0.502316,-0.29359 -0.679582,-0.48424 -0.173611,-0.18894 -0.281896,-0.39052 -0.32455,-0.60476 -0.02531,-0.13101 -0.02495,-0.26959 0.0011,-0.41568 0.03119,-0.14795 0.09839,-0.3294 0.201383,-0.54428 l 1.251253,-2.61093 -0.434582,-0.33379 0.05918,-0.1237 1.525716,0.73118 -0.05918,0.12371 -0.527057,-0.12709 z m 6.137249,-1.33418 c 0.17611,0.0303 0.32954,0.087 0.46029,0.17023 0.13457,0.0836 0.25575,0.1993 0.36325,0.3469 l 0.24061,-0.2728 0.11746,0.0201 -0.17022,1.30061 -0.15258,-0.0264 c -0.0298,-0.38803 -0.11711,-0.68725 -0.26206,-0.8977 -0.14099,-0.20978 -0.34469,-0.33766 -0.61081,-0.38363 -0.22308,-0.0385 -0.40968,-0.009 -0.55978,0.0907 -0.14937,0.095 -0.24208,0.24632 -0.27791,0.45376 -0.029,0.16827 -0.0107,0.32249 0.0531,0.46261 0.0643,0.1401 0.15187,0.26401 0.26224,0.37176 0.11104,0.10392 0.26594,0.23342 0.46488,0.38865 0.22031,0.17112 0.39603,0.32031 0.52716,0.44776 0.13119,0.12744 0.2334,0.28214 0.30675,0.4641 0.0779,0.17871 0.0973,0.38155 0.0579,0.60855 -0.0426,0.24655 -0.1442,0.46076 -0.30448,0.64263 -0.15579,0.17864 -0.35149,0.30806 -0.587,0.38827 -0.23163,0.0809 -0.47658,0.0991 -0.73488,0.0544 -0.16042,-0.0278 -0.311,-0.0781 -0.45158,-0.15062 -0.140641,-0.0726 -0.286268,-0.17433 -0.436975,-0.30523 l -0.276389,0.20013 -0.117464,-0.0203 0.154005,-1.52106 0.152757,-0.009 c 0.03547,0.49383 0.131011,0.86298 0.286263,1.10744 0.155963,0.24055 0.394373,0.38854 0.715283,0.444 0.27003,0.0465 0.49447,0.0189 0.67333,-0.0832 0.17887,-0.10213 0.2879,-0.26662 0.32711,-0.49361 0.0298,-0.17219 0.0107,-0.32871 -0.0579,-0.46949 -0.0677,-0.14473 -0.1606,-0.27159 -0.27883,-0.38068 -0.11746,-0.113 -0.27963,-0.24781 -0.48631,-0.40444 -0.23139,-0.177 -0.41428,-0.33154 -0.54866,-0.46358 -0.13047,-0.13137 -0.23464,-0.28639 -0.312586,-0.46512 -0.07789,-0.17869 -0.09768,-0.37959 -0.05918,-0.60266 0.04046,-0.23481 0.133866,-0.43633 0.279796,-0.60458 0.14598,-0.16826 0.32785,-0.28797 0.54568,-0.35915 0.21851,-0.075 0.45105,-0.0913 0.69762,-0.0487 z m 5.90416,3.23813 -0.0945,1.40817 -3.2752,0.2948 -0.0125,-0.13654 0.49419,-0.1581 -0.36639,-4.07028 -0.51449,-0.0674 -0.0125,-0.13654 3.29895,-0.29696 0.21837,1.29626 -0.14242,0.0125 c -0.15721,-0.41653 -0.33157,-0.7597 -0.52335,-1.02953 l -1.70286,0.15329 0.16239,1.80373 1.06208,-0.0955 c 0.08,-0.21855 0.13172,-0.46246 0.15543,-0.73176 l 0.14242,-0.0125 0.14955,1.66134 -0.14242,0.0125 c -0.0578,-0.24204 -0.15223,-0.4728 -0.28363,-0.69224 l -1.06208,0.0955 0.18479,2.05295 1.67321,-0.15062 c 0.0911,-0.18364 0.16274,-0.36355 0.21461,-0.53969 0.0558,-0.17646 0.11586,-0.39524 0.18017,-0.65623 z m 2.47912,-0.66717 c 0.13707,0.34298 0.33284,0.57055 0.58725,0.6827 0.25662,0.10695 0.54535,0.0964 0.86619,-0.0317 0.19915,-0.0795 0.36253,-0.17901 0.49016,-0.29856 0.12762,-0.11943 0.20987,-0.25069 0.24678,-0.39375 0.0341,-0.12905 0.0323,-0.28874 -0.005,-0.47902 -0.0376,-0.19028 -0.11532,-0.43294 -0.23323,-0.72797 l -0.94637,-2.36759 -0.53434,0.0916 -0.051,-0.12726 1.21147,-0.48425 0.0508,0.12727 -0.45585,0.30411 1.03923,2.59993 c 0.0929,0.23235 0.15454,0.43444 0.18459,0.60629 0.0303,0.17183 0.0299,0.32598 -0.001,0.46241 -0.0437,0.20133 -0.15276,0.38825 -0.32759,0.56078 -0.17628,0.1688 -0.4046,0.30929 -0.68487,0.42132 -0.28396,0.11354 -0.55611,0.17094 -0.81646,0.17236 -0.25664,-7e-5 -0.47823,-0.0569 -0.6648,-0.17058 -0.11355,-0.07 -0.21536,-0.16416 -0.30527,-0.28218 -0.0877,-0.12317 -0.17575,-0.29541 -0.26425,-0.51668 l -1.07463,-2.68846 -0.53987,0.0939 -0.0508,-0.12727 1.57103,-0.62796 0.0508,0.12727 -0.45031,0.30189 z m 1.98203,-4.06872 -0.09,-0.10321 0.94198,-0.82326 3.44168,1.6838 0.0223,-0.0194 -1.20784,-3.63613 0.93749,-0.81937 0.09,0.10321 -0.32474,0.43413 2.68936,3.07714 0.47369,-0.26368 0.09,0.10321 -1.27391,1.11339 -0.09,-0.1032 0.32922,-0.43804 -2.40709,-2.75419 -0.0178,0.016 1.33702,4.10079 -0.12103,0.10588 -3.87813,-1.91159 -0.0178,0.016 2.42278,2.77211 0.47371,-0.2637 0.09,0.1032 -0.98235,0.85858 -0.09,-0.1032 0.32922,-0.43808 -2.68937,-3.07712 z m -23.955035,-14.40007 -0.02014,-0.0284 0.02495,-0.14847 0.02834,-0.0202 c 0.260222,0.0335 0.420982,0.0471 0.482281,0.0408 0.05971,-0.009 0.129407,-0.0538 0.209333,-0.13315 0.07825,-0.0823 0.15044,-0.19587 0.216266,-0.34056 0.06613,-0.14669 0.112473,-0.29779 0.138676,-0.45331 0.03601,-0.21409 0.02887,-0.41261 -0.02121,-0.59554 -0.04973,-0.18495 -0.142419,-0.33763 -0.27801,-0.45808 -0.137428,-0.12085 -0.301183,-0.19717 -0.491051,-0.22915 -0.133328,-0.0225 -0.253324,-0.0189 -0.360111,0.0107 -0.106413,0.0278 -0.195964,0.0781 -0.268492,0.15097 -0.07433,0.0706 -0.134398,0.15597 -0.180243,0.25625 -0.04795,0.1 -0.10677,0.25102 -0.176107,0.45326 -0.06631,0.19653 -0.122277,0.35015 -0.168087,0.46086 -0.04545,0.10873 -0.104808,0.21501 -0.178335,0.31888 -0.07362,0.10392 -0.158283,0.18734 -0.253983,0.2501 -0.0975,0.0604 -0.210652,0.10373 -0.339648,0.12976 -0.130655,0.0237 -0.265712,0.0237 -0.405065,2.7e-4 -0.377686,-0.0636 -0.664591,-0.24704 -0.860716,-0.55002 -0.19812,-0.30339 -0.259936,-0.67626 -0.185429,-1.11858 0.02959,-0.17575 0.08395,-0.36284 0.163095,-0.56135 0.07736,-0.20091 0.172721,-0.37903 0.286299,-0.53439 l 0.03993,-0.0143 c 0.178336,0.0758 0.438326,0.14759 0.77997,0.21552 l 0.01961,0.0315 -0.02656,0.15757 -0.02531,0.0207 c -0.243057,-0.0367 -0.39658,-0.0563 -0.460553,-0.0588 -0.06399,-0.004 -0.157213,0.0752 -0.279704,0.2364 -0.122455,0.16007 -0.201115,0.34309 -0.23582,0.54911 -0.02905,0.17165 -0.02175,0.33804 0.02192,0.49907 0.04349,0.16096 0.132437,0.29233 0.266995,0.39393 0.134576,0.1016 0.278527,0.16523 0.432015,0.19116 0.119247,0.0202 0.229118,0.0143 0.329845,-0.016 0.09875,-0.0312 0.18149,-0.0784 0.248243,-0.14206 0.06506,-0.066 0.118891,-0.14509 0.161492,-0.23764 0.04296,-0.0945 0.105521,-0.26877 0.1878,-0.52292 0.110691,-0.34899 0.21607,-0.59814 0.315959,-0.74747 0.09821,-0.15169 0.233325,-0.2629 0.405154,-0.33366 0.172186,-0.0727 0.368364,-0.0906 0.588516,-0.0535 0.430197,0.0724 0.759097,0.30849 0.9867,0.70835 0.227941,0.39772 0.299899,0.84601 0.215856,1.34489 -0.07041,0.41809 -0.206962,0.77209 -0.409467,1.06197 l -0.04242,0.0107 c -0.123881,-0.0415 -0.418166,-0.10677 -0.883014,-0.19549 z m -1.201755,-7.60763 0.03618,-0.016 c 0.163987,0.0861 0.458735,0.21511 0.884138,0.38688 l 0.01426,0.0319 -0.05401,0.13404 -0.03476,0.0125 -0.274731,-0.0747 c -0.146697,-0.0415 -0.237121,-0.0638 -0.271345,-0.0665 -0.03547,-0.005 -0.06363,-5.9e-4 -0.08449,0.0125 -0.02282,0.0125 -0.06007,0.0695 -0.111761,0.17022 -0.05169,0.10071 -0.103561,0.21554 -0.155787,0.34466 l -0.217443,0.53839 c 0.423068,0.18853 0.667853,0.29623 0.734321,0.32307 l 1.66081,0.67074 0.557804,0.21864 c 0.215357,0.0847 0.356849,0.13636 0.424493,0.1549 0.06649,0.016 0.113722,0.0194 0.141528,0.0107 0.02674,-0.0107 0.05793,-0.0389 0.09376,-0.0847 0.03405,-0.0458 0.0959,-0.16897 0.185483,-0.36906 l 0.02513,-0.0143 0.142419,0.0576 0.01426,0.0292 c -0.211543,0.48005 -0.328811,0.74856 -0.351823,0.80553 -0.0246,0.0608 -0.126376,0.33453 -0.305104,0.82109 l -0.03191,0.0143 -0.142419,-0.0576 -0.0071,-0.0296 c 0.06453,-0.18162 0.102492,-0.3032 0.114078,-0.36476 0.01248,-0.0635 0.01426,-0.1082 0.0053,-0.13404 -0.01069,-0.0285 -0.04278,-0.0613 -0.09625,-0.0984 -0.05365,-0.0371 -0.181954,-0.0966 -0.385066,-0.17872 l -0.598783,-0.24844 -1.660809,-0.67074 c -0.03048,-0.0125 -0.281326,-0.10481 -0.752734,-0.27748 l -0.171473,0.42444 c -0.07041,0.17468 -0.127625,0.32724 -0.171473,0.45756 -0.04367,0.1303 -0.05365,0.21243 -0.02994,0.24635 0.02281,0.0312 0.117107,0.0904 0.282948,0.17718 l 0.250578,0.1344 0.01604,0.0362 -0.05294,0.13119 -0.03191,0.0143 c -0.459233,-0.18105 -0.760862,-0.29293 -0.904867,-0.33562 l -0.01604,-0.0362 c 0.148657,-0.32432 0.378292,-0.87106 0.688922,-1.64023 0.316761,-0.78433 0.531601,-1.33816 0.644503,-1.66145 z m 0.539463,-0.91875 -0.0036,-0.0324 c 0.416936,-0.56556 0.682344,-0.92849 0.796244,-1.08878 0.389111,-0.54765 0.730506,-1.03873 1.024203,-1.47326 l 0.02656,-7e-5 c 0.130655,0.15561 0.359969,0.36506 0.688013,0.6283 l 0.0089,0.0292 -0.08716,0.12263 -0.03618,0.007 c -0.01426,-0.0125 -0.02656,-0.0226 -0.03815,-0.031 -0.141884,-0.10071 -0.284873,-0.186 -0.42886,-0.25571 -0.121564,0.072 -0.255338,0.19675 -0.401553,0.37421 -0.146697,0.17468 -0.253306,0.30872 -0.319738,0.40223 -0.09376,0.1319 -0.204395,0.30706 -0.331913,0.52547 l 0.393604,0.29475 0.452977,0.33316 0.503046,0.36873 c 0.138141,-0.17325 0.261203,-0.33576 0.369149,-0.48768 0.109086,-0.15365 0.195429,-0.28573 0.259027,-0.39636 0.06363,-0.1107 0.09625,-0.17789 0.09804,-0.20169 9.1e-4,-0.0266 -0.01069,-0.0547 -0.03422,-0.0845 -0.0246,-0.0326 -0.07379,-0.08 -0.14741,-0.1426 l -0.148122,-0.12031 -0.0053,-0.0342 0.08181,-0.11532 0.03422,-0.005 c 0.179619,0.13262 0.359487,0.26673 0.539569,0.40223 l 0.572402,0.38788 0.0053,0.0342 -0.08181,0.11514 -0.03422,0.005 -0.162738,-0.0893 c -0.127625,-0.0679 -0.204574,-0.10641 -0.231008,-0.11515 -0.02798,-0.009 -0.05936,-0.007 -0.09394,0.005 -0.03333,0.0125 -0.09073,0.0642 -0.17183,0.15686 -0.0811,0.0932 -0.184039,0.22735 -0.308651,0.40257 -0.0688,0.0968 -0.169691,0.24758 -0.302466,0.45219 0.134398,0.10802 0.36512,0.27828 0.692362,0.51078 0.350628,0.24914 0.611545,0.42824 0.782768,0.53734 l 0.327421,-0.46082 c 0.288278,-0.4057 0.463601,-0.66305 0.525951,-0.77202 0.06221,-0.10891 0.106948,-0.223 0.133863,-0.34212 -0.02781,-0.0422 -0.0991,-0.12941 -0.21386,-0.26126 -0.115325,-0.13475 -0.188816,-0.21703 -0.220276,-0.24696 l 2.85e-4,-0.0376 0.08538,-0.12014 0.03173,-0.007 c 0.06114,0.0661 0.175572,0.17005 0.343641,0.31202 0.169155,0.14028 0.317171,0.25552 0.444064,0.34568 l 0.0071,0.0317 c -0.236622,0.31178 -0.538214,0.72561 -0.904796,1.24154 l -0.489036,0.67764 c -0.112652,0.15864 -0.223414,0.32865 -0.332305,0.51013 l -0.03422,0.005 -0.08253,-0.0586 -0.01069,-0.0378 c 0.01996,-0.13404 0.02888,-0.21197 0.02656,-0.23363 -0.0036,-0.0244 -0.141349,-0.13992 -0.413353,-0.34649 -0.273376,-0.20931 -0.483547,-0.36619 -0.630475,-0.47059 l -0.919109,-0.65306 -0.570299,-0.40146 c -0.123525,-0.0877 -0.224911,-0.15721 -0.304088,-0.20853 -0.08075,-0.0524 -0.140815,-0.0863 -0.180243,-0.10178 -0.03939,-0.016 -0.06987,-0.0219 -0.09144,-0.0198 -0.0205,5.1e-4 -0.04385,0.0107 -0.07005,0.0296 -0.02656,0.016 -0.06399,0.0511 -0.112295,0.1048 l -0.150262,0.17968 -0.03173,0.007 z m 2.639952,-3.53314 0.0053,-0.0324 c 0.392302,-0.32308 0.617695,-0.51031 0.676142,-0.56169 0.05223,-0.046 0.267619,-0.24622 0.646018,-0.60066 l 0.03262,-5e-5 0.101422,0.11532 -0.0053,0.0324 c -0.103383,0.0964 -0.181633,0.17326 -0.234733,0.23089 -0.05151,0.0561 -0.08306,0.10409 -0.09429,0.1442 -0.01248,0.0397 0.0053,0.0954 0.0524,0.16666 0.04652,0.0683 0.118356,0.15775 0.215642,0.26856 l 0.461944,0.53476 0.896596,1.01987 c 0.224483,0.25536 0.382891,0.43244 0.475222,0.53126 l 0.362482,0.38904 0.470695,-0.41381 c 0.375351,-0.32997 0.60511,-0.54014 0.689296,-0.6305 0.08574,-0.0918 0.155966,-0.19316 0.211133,-0.30426 -0.01604,-0.0533 -0.07076,-0.16274 -0.161669,-0.32822 -0.0893,-0.16684 -0.142776,-0.26172 -0.160244,-0.28459 l 0.0053,-0.0367 0.113008,-0.0993 0.03244,0.005 c 0.04171,0.0724 0.133507,0.20308 0.275195,0.39214 0.143132,0.18772 0.262806,0.33618 0.358827,0.44541 l -0.0036,0.0346 c -0.300363,0.2477 -0.688209,0.58051 -1.163539,0.99837 l -0.677817,0.5877 c -0.153826,0.13529 -0.305336,0.27933 -0.45451,0.43228 l -0.03458,-0.004 -0.06702,-0.0761 -0.0014,-0.0392 c 0.05205,-0.13297 0.07789,-0.20905 0.07772,-0.22792 -2.68e-4,-0.0189 -0.07825,-0.1262 -0.234002,-0.32201 -0.154183,-0.19714 -0.347616,-0.428 -0.58021,-0.69259 l -0.870234,-0.98985 -0.400162,-0.44591 c -0.155609,-0.17396 -0.259723,-0.283 -0.312038,-0.32701 -0.0508,-0.0455 -0.09126,-0.0697 -0.121564,-0.0731 -0.0287,-0.005 -0.06845,0.005 -0.119604,0.0315 -0.05098,0.0258 -0.160778,0.10731 -0.329185,0.24443 l -0.03262,6e-5 z m 3.466391,-2.90756 0.01069,-0.0305 c 0.456204,-0.22393 0.718672,-0.35417 0.787403,-0.39071 0.0615,-0.0326 0.317243,-0.17789 0.767048,-0.43557 l 0.03173,0.007 0.07201,0.13583 -0.01069,0.0305 c -0.122812,0.07 -0.216747,0.12691 -0.281629,0.17058 -0.06292,0.0428 -0.104631,0.0823 -0.124951,0.11853 -0.02014,0.0362 -0.01604,0.0943 0.01248,0.17433 0.02941,0.0772 0.07861,0.18092 0.147944,0.31106 l 0.326226,0.62683 0.637373,1.19907 c 0.159531,0.30022 0.272895,0.50907 0.339969,0.62652 l 0.263021,0.46212 0.553401,-0.29418 c 0.441302,-0.23456 0.713324,-0.38612 0.816065,-0.45465 0.10463,-0.0693 0.196427,-0.15187 0.275586,-0.24737 -0.0053,-0.0558 -0.03208,-0.17469 -0.08181,-0.35669 -0.04866,-0.18295 -0.07861,-0.28759 -0.09019,-0.31388 l 0.01248,-0.0346 0.132972,-0.0706 0.03048,0.0125 c 0.02406,0.08 0.08324,0.22831 0.177355,0.44501 0.09607,0.21567 0.1783,0.38772 0.246497,0.51613 l -0.0089,0.0331 c -0.349416,0.17183 -0.803534,0.40624 -1.362372,0.70329 l -0.795049,0.41565 c -0.180867,0.0961 -0.361484,0.20142 -0.541869,0.31585 l -0.03315,-0.009 -0.04759,-0.0897 0.0071,-0.0387 c 0.08146,-0.11746 0.124238,-0.18546 0.128338,-0.20384 0.0053,-0.0184 -0.04634,-0.14081 -0.15347,-0.36726 -0.104631,-0.22737 -0.239688,-0.49659 -0.404976,-0.80767 l -0.618604,-1.1638 -0.28662,-0.52613 c -0.111404,-0.20522 -0.187426,-0.33527 -0.228244,-0.39015 -0.03904,-0.0558 -0.07272,-0.0889 -0.101422,-0.0991 -0.02692,-0.0107 -0.06809,-0.009 -0.123703,0.004 -0.05544,0.0125 -0.181045,0.0672 -0.376652,0.16185 l -0.03173,-0.007 z m 4.158503,-2.05985 0.01836,-0.0269 c 0.683058,-0.1647 1.119744,-0.27176 1.310057,-0.32118 0.650225,-0.1688 1.227546,-0.32516 1.731964,-0.46884 l 0.0201,0.0178 c -1.8e-4,0.20318 0.0406,0.51105 0.12246,0.92364 l -0.0125,0.0283 -0.14563,0.0378 -0.033,-0.0161 c -0.004,-0.0184 -0.007,-0.0346 -0.009,-0.0485 -0.0437,-0.16844 -0.0984,-0.32574 -0.16381,-0.47169 -0.13939,-0.023 -0.32204,-0.0143 -0.548181,0.0282 -0.224679,0.0394 -0.392534,0.0734 -0.503563,0.10214 -0.156679,0.0406 -0.353997,0.10356 -0.59217,0.1887 l 0.111582,0.47888 0.132437,0.54649 0.147945,0.60596 c 0.217193,-0.0437 0.415973,-0.0889 0.596376,-0.13582 0.182399,-0.0474 0.333499,-0.0931 0.453314,-0.13689 0.11978,-0.0437 0.18809,-0.0742 0.20482,-0.0914 0.0182,-0.0196 0.0276,-0.0485 0.0283,-0.0868 0.002,-0.0408 -0.005,-0.10873 -0.021,-0.20399 l -0.0362,-0.18744 0.0178,-0.0299 0.1369,-0.0355 0.0299,0.0178 c 0.0522,0.21712 0.10356,0.43549 0.15436,0.65511 l 0.18862,0.66519 -0.0178,0.0299 -0.1369,0.0355 -0.0299,-0.0178 -0.0672,-0.17308 c -0.0538,-0.13422 -0.0881,-0.21304 -0.10285,-0.23677 -0.0143,-0.0257 -0.0401,-0.0446 -0.0749,-0.0567 -0.033,-0.0125 -0.11034,-0.009 -0.2324,0.009 -0.122096,0.0191 -0.287134,0.0556 -0.495273,0.10963 -0.114969,0.0298 -0.289186,0.0804 -0.522475,0.15151 0.03333,0.16915 0.100353,0.44789 0.201365,0.83645 0.108195,0.41633 0.19263,0.72133 0.253502,0.91499 l 0.547121,-0.14206 c 0.48173,-0.12513 0.78151,-0.20931 0.89935,-0.25263 0.11782,-0.0433 0.22539,-0.10195 0.32255,-0.17575 0.005,-0.0503 0.007,-0.16274 0.005,-0.3376 -0.002,-0.17735 -0.005,-0.28758 -0.009,-0.33077 l 0.0242,-0.0285 0.14277,-0.0371 0.0292,0.0143 c 0.005,0.0898 0.0255,0.24314 0.0624,0.45994 0.0392,0.21625 0.0784,0.3997 0.11764,0.55036 l -0.0143,0.0292 c -0.38173,0.0864 -0.87888,0.20926 -1.49144,0.36827 l -0.810374,0.20413 c -0.188335,0.0488 -0.382534,0.10766 -0.582598,0.17664 l -0.02994,-0.0178 -0.02549,-0.0982 0.01604,-0.036 c 0.101423,-0.0898 0.158283,-0.14367 0.170582,-0.16167 0.01426,-0.0205 -0.01782,-0.19751 -0.09358,-0.53121 -0.07469,-0.33614 -0.134576,-0.59144 -0.179851,-0.76589 l -0.283411,-1.09131 -0.1783,-0.67424 c -0.03815,-0.14669 -0.07094,-0.26512 -0.09857,-0.35529 -0.02816,-0.0922 -0.0524,-0.15668 -0.07255,-0.19383 -0.02014,-0.0371 -0.03939,-0.0617 -0.0574,-0.074 -0.01604,-0.0125 -0.04028,-0.0203 -0.07255,-0.0223 -0.03084,-0.005 -0.08199,-0.002 -0.15347,0.007 l -0.230615,0.041 -0.02923,-0.0143 z m 4.479361,3.23926 -0.0269,-0.0284 0.005,-0.14135 0.0283,-0.0239 c 0.12495,9.1e-4 0.22443,-0.004 0.29843,-0.0143 0.0761,-0.0107 0.12478,-0.0299 0.14581,-0.0577 0.0232,-0.0282 0.0387,-0.0738 0.0465,-0.13707 0.009,-0.0633 0.0201,-0.20638 0.0321,-0.42947 0.0143,-0.22299 0.0217,-0.38259 0.0241,-0.47882 l 0.0608,-2.48167 c 0.004,-0.10445 -0.0143,-0.18171 -0.0528,-0.23178 -0.0355,-0.052 -0.0859,-0.085 -0.15115,-0.0991 -0.0652,-0.016 -0.17664,-0.0269 -0.33418,-0.0328 l -0.0239,-0.0251 0.005,-0.14438 0.0253,-0.0269 c 0.28232,0.0178 0.4675,0.0267 0.55554,0.0289 0.20681,0.005 0.37688,0.004 0.51023,-0.004 l 0.94853,1.29558 1.39612,1.84134 c 0.16862,0.22336 0.34068,0.43554 0.51602,0.63653 l 0.0585,-2.37722 c 0.002,-0.0736 0.002,-0.23041 -8e-4,-0.47023 -1.6e-4,-0.24175 -0.005,-0.39451 -0.0143,-0.45823 -0.009,-0.0658 -0.0257,-0.11034 -0.052,-0.13333 -0.0241,-0.023 -0.0717,-0.0406 -0.14314,-0.0528 -0.0693,-0.0143 -0.16434,-0.0235 -0.28512,-0.0285 l -0.0241,-0.0251 0.005,-0.14135 0.0253,-0.0269 c 0.16559,0.0143 0.40196,0.0251 0.70909,0.0328 0.28053,0.007 0.48439,0.007 0.61159,-3.4e-4 l 0.0269,0.0283 -0.005,0.14135 -0.0251,0.0241 c -0.13511,-9e-4 -0.23981,0.004 -0.31387,0.016 -0.074,0.0107 -0.12068,0.031 -0.13975,0.0611 -0.0191,0.0301 -0.0335,0.0749 -0.0433,0.13422 -0.007,0.0592 -0.0178,0.20028 -0.0319,0.42332 -0.0125,0.22304 -0.0189,0.38371 -0.021,0.48198 l -0.0358,1.45889 -0.0178,0.84471 c -0.004,0.27651 -0.005,0.55406 -0.007,0.83264 -0.10143,-0.0373 -0.27753,-0.0847 -0.52816,-0.14206 l -0.21173,-0.26334 -0.63459,-0.81462 -2.01849,-2.65257 -0.0578,2.35572 c -0.004,0.0943 -0.005,0.26221 -0.004,0.50393 0.002,0.2418 0.007,0.38842 0.016,0.43988 0.009,0.0515 0.0219,0.0877 0.0373,0.10855 0.016,0.0189 0.0504,0.0371 0.10303,0.0547 0.0549,0.0178 0.16737,0.0298 0.33719,0.036 l 0.0241,0.0251 -0.005,0.14438 -0.0251,0.0239 c -0.10605,-0.0178 -0.27794,-0.0283 -0.51545,-0.0342 -0.30509,-0.007 -0.57247,-0.007 -0.80216,10e-4 z m 6.05669,-3.77683 -0.0178,-0.0278 0.046,-0.14651 0.0299,-0.0143 c 0.32929,0.12049 0.5848,0.2091 0.76656,0.26608 0.0683,0.0216 0.34147,0.0986 0.81942,0.23115 0.15365,0.0439 0.26471,0.0765 0.3331,0.098 0.26383,0.0827 0.46467,0.17468 0.60255,0.27585 0.13778,0.10107 0.23252,0.23384 0.28405,0.39815 0.0522,0.16238 0.0517,0.32849 -10e-4,0.49852 -0.0679,0.21694 -0.20926,0.39373 -0.42387,0.53037 -0.21456,0.13672 -0.51029,0.18989 -0.88721,0.15971 0.20495,0.0857 0.37001,0.16862 0.49515,0.24862 0.12513,0.08 0.22534,0.17468 0.30051,0.28418 0.0757,0.10748 0.12263,0.23159 0.14081,0.37253 0.02,0.14153 0.005,0.29338 -0.0463,0.4556 -0.0397,0.12709 -0.0998,0.24988 -0.17996,0.36858 -0.08,0.11871 -0.19315,0.22601 -0.33916,0.32189 -0.14403,0.0964 -0.30472,0.16737 -0.48205,0.2127 -0.17736,0.0455 -0.35061,0.064 -0.51982,0.056 -0.1672,-0.007 -0.36619,-0.0469 -0.59683,-0.11942 -0.0469,-0.0143 -0.186,-0.0638 -0.41754,-0.14706 -0.2581,-0.0875 -0.3979,-0.13457 -0.41939,-0.14117 -0.13297,-0.0415 -0.29853,-0.0848 -0.49694,-0.12994 l -0.016,-0.0308 0.0303,-0.0968 0.0326,-0.0221 c 0.12923,-0.016 0.20579,-0.0299 0.22951,-0.0438 0.0237,-0.0143 0.0916,-0.18268 0.2037,-0.506 0.11408,-0.32272 0.19807,-0.57005 0.25199,-0.74204 l 0.33731,-1.07588 0.2057,-0.66641 c 0.0455,-0.14455 0.0802,-0.2625 0.10445,-0.35362 0.0248,-0.0932 0.0394,-0.16042 0.0439,-0.20193 0.005,-0.041 0.004,-0.0717 -0.007,-0.0922 -0.0107,-0.0205 -0.0292,-0.0403 -0.0554,-0.0593 -0.0237,-0.0203 -0.0684,-0.0451 -0.13458,-0.0745 z m 0.56989,1.86904 c 0.0954,0.0385 0.2045,0.077 0.32759,0.11568 0.40457,0.12691 0.70866,0.14277 0.9123,0.0478 0.20365,-0.095 0.345,-0.26849 0.42405,-0.52066 0.046,-0.14652 0.0545,-0.28018 0.0258,-0.4008 -0.028,-0.12264 -0.0989,-0.23176 -0.21286,-0.32753 -0.11176,-0.0952 -0.27914,-0.17771 -0.50194,-0.24753 -0.18176,-0.0569 -0.3466,-0.0925 -0.49457,-0.10677 -0.0727,0.1704 -0.17771,0.47447 -0.31498,0.91226 z m -0.66417,2.13897 c 0.13939,0.0825 0.28835,0.14848 0.44665,0.19798 0.27947,0.0875 0.51246,0.11122 0.69894,0.0709 0.1865,-0.0405 0.3417,-0.12798 0.4656,-0.26295 0.12638,-0.13636 0.2191,-0.29835 0.27792,-0.48597 0.0882,-0.28143 0.0786,-0.5313 -0.0289,-0.74963 -0.10498,-0.21965 -0.42237,-0.41252 -0.95196,-0.57857 -0.0879,-0.0276 -0.19469,-0.0567 -0.32029,-0.0875 l -0.31341,0.99968 z m 3.44499,-0.82936 c 0.16701,-0.25791 0.35977,-0.47469 0.57841,-0.65033 0.21861,-0.17558 0.4777,-0.30072 0.77722,-0.37521 0.30238,-0.075 0.61248,-0.0831 0.93027,-0.0237 0.31892,0.0576 0.63656,0.18885 0.95291,0.39366 0.5863,0.37954 0.9496,0.84164 1.08987,1.38629 0.14135,0.54292 0.0335,1.09033 -0.32386,1.64224 -0.25156,0.38856 -0.56262,0.68248 -0.93319,0.88178 -0.37057,0.1993 -0.77056,0.28195 -1.19994,0.24796 -0.42767,-0.033 -0.83922,-0.17735 -1.23466,-0.43332 -0.28026,-0.18143 -0.50811,-0.39481 -0.68356,-0.64015 -0.17432,-0.24705 -0.28476,-0.51741 -0.33132,-0.81107 -0.0449,-0.29254 -0.0262,-0.58536 0.0563,-0.87849 0.0841,-0.29202 0.19131,-0.53861 0.32152,-0.73976 z m 0.64664,0.177 c -0.13583,0.20976 -0.24864,0.45756 -0.33853,0.74337 -0.087,0.28523 -0.1196,0.55809 -0.098,0.81856 0.0244,0.25987 0.0971,0.4887 0.21803,0.68648 0.12263,0.19889 0.29646,0.37124 0.52169,0.51706 0.2665,0.17254 0.54329,0.26511 0.83036,0.27771 0.28707,0.0125 0.56768,-0.0742 0.84184,-0.26019 0.27527,-0.18776 0.51644,-0.44155 0.72347,-0.76136 0.22482,-0.34731 0.36606,-0.70115 0.42371,-1.06154 0.0576,-0.3604 0.0125,-0.67825 -0.13297,-0.95352 -0.14634,-0.27526 -0.35872,-0.50306 -0.63725,-0.68336 -0.41779,-0.27048 -0.83164,-0.35296 -1.24153,-0.24746 -0.40991,0.10553 -0.78015,0.41361 -1.11074,0.92425 z m 2.86816,3.54806 0.0348,0.001 0.10214,0.11051 -0.001,0.0346 c -0.18566,0.1854 -0.29474,0.30425 -0.32727,0.35658 -0.0296,0.0524 -0.0373,0.13476 -0.023,0.24695 0.0178,0.11229 0.0629,0.23876 0.13707,0.37939 0.0754,0.14225 0.16666,0.27117 0.27374,0.38703 0.14723,0.15953 0.30863,0.27536 0.48404,0.34756 0.17682,0.0736 0.3543,0.0938 0.53246,0.0604 0.17965,-0.0348 0.34022,-0.11764 0.48166,-0.24825 0.0993,-0.0918 0.16987,-0.18894 0.21163,-0.29161 0.0431,-0.10106 0.0581,-0.20272 0.0447,-0.30476 -0.0107,-0.10178 -0.0415,-0.20163 -0.0925,-0.29938 -0.0497,-0.0991 -0.13333,-0.23796 -0.25085,-0.41657 -0.11497,-0.17272 -0.20216,-0.31096 -0.26177,-0.41479 -0.0583,-0.10232 -0.10588,-0.21438 -0.14313,-0.33617 -0.0373,-0.12175 -0.0515,-0.23976 -0.0424,-0.35389 0.0125,-0.11408 0.0469,-0.2301 0.10516,-0.34805 0.0611,-0.11782 0.14367,-0.22475 0.24759,-0.32061 0.28138,-0.25983 0.60192,-0.37462 0.96162,-0.34437 0.36121,0.0289 0.69396,0.20808 0.99828,0.53762 0.12085,0.13102 0.23564,0.28841 0.34427,0.47246 0.1114,0.18417 0.19398,0.36864 0.24758,0.55339 l -0.0125,0.0408 c -0.16897,0.0946 -0.38488,0.25642 -0.64764,0.48513 l -0.0369,-0.005 -0.10855,-0.11746 -9.1e-4,-0.0326 c 0.17789,-0.16969 0.28722,-0.27917 0.32831,-0.32826 0.041,-0.049 0.0357,-0.17112 -0.016,-0.3659 -0.0519,-0.19483 -0.14848,-0.36899 -0.2901,-0.52248 -0.11818,-0.12798 -0.25416,-0.22389 -0.40815,-0.28801 -0.154,-0.0642 -0.3123,-0.0741 -0.47495,-0.0298 -0.16274,0.0442 -0.30115,0.11907 -0.41551,0.22479 -0.0886,0.082 -0.15169,0.17219 -0.18907,0.27076 -0.0358,0.0971 -0.049,0.1915 -0.0396,0.28325 0.0125,0.0918 0.0419,0.18289 0.0891,0.27314 0.0487,0.0918 0.14813,0.24789 0.29878,0.46847 0.20832,0.30107 0.34098,0.5368 0.39797,0.70723 0.0599,0.17058 0.0652,0.34537 0.016,0.52459 -0.0478,0.18073 -0.15365,0.34683 -0.31769,0.49829 -0.3205,0.29596 -0.70849,0.41168 -1.16394,0.34717 -0.45407,-0.0629 -0.8527,-0.28033 -1.19591,-0.65202 -0.28764,-0.31147 -0.48417,-0.63599 -0.58957,-0.97357 l 0.016,-0.0408 c 0.10873,-0.0724 0.34036,-0.26535 0.69488,-0.57894 z m 3.71779,6.15558 -0.30635,0.0378 c -0.42412,-0.2836 -0.7623,-0.65056 -1.01454,-1.10086 -0.36136,-0.64509 -0.47196,-1.27215 -0.33184,-1.8812 0.14117,-0.60725 0.50739,-1.07653 1.09887,-1.40784 0.40743,-0.22823 0.81909,-0.32735 1.23498,-0.29735 0.41866,0.0308 0.79514,0.16844 1.12944,0.41319 0.33704,0.2455 0.62069,0.57376 0.85091,0.98476 0.13315,0.23767 0.23972,0.48668 0.31983,0.74701 0.08,0.26033 0.12887,0.48774 0.14634,0.68224 l -0.016,0.0337 c -0.12317,0.0143 -0.39211,0.11497 -0.80705,0.30063 l -0.0319,-0.007 -0.0706,-0.12602 0.009,-0.0335 0.44064,-0.28204 c 0.0305,-0.18851 0.0223,-0.3917 -0.0246,-0.60955 -0.0442,-0.21709 -0.12227,-0.4257 -0.23435,-0.62584 -0.16916,-0.302 -0.38605,-0.53618 -0.65062,-0.70258 -0.26279,-0.16737 -0.55451,-0.24813 -0.87517,-0.24223 -0.31888,0.005 -0.65613,0.10677 -1.01173,0.30614 -0.35738,0.20018 -0.62744,0.45358 -0.8102,0.7602 -0.18275,0.3066 -0.27143,0.63447 -0.26603,0.98358 0.005,0.35091 0.1098,0.70594 0.3114,1.06511 0.0891,0.159 0.18988,0.30332 0.3023,0.43282 0.11247,0.12958 0.218,0.23002 0.31676,0.30148 0.0996,0.0733 0.20675,0.13654 0.32117,0.18987 z m 3.86748,-0.61517 c 0.0925,0.51431 0.14527,0.80252 0.15847,0.86462 0.0143,0.0661 0.0831,0.35198 0.20721,0.8574 l -0.016,0.0285 -0.15026,0.0319 -0.026,-0.0194 c -0.0333,-0.13743 -0.0622,-0.24329 -0.0863,-0.31773 -0.0237,-0.0725 -0.0503,-0.12334 -0.0795,-0.15275 -0.0292,-0.0294 -0.0863,-0.0414 -0.17094,-0.036 -0.0824,0.007 -0.19561,0.0258 -0.33979,0.0563 l -0.69247,0.14081 -0.42075,0.0893 c 0.0813,0.44132 0.16363,0.85831 0.24684,1.25101 0.11407,0.53693 0.20689,0.94436 0.27842,1.22232 l 0.42073,-0.0893 0.58475,-0.13048 c 0.22798,-0.0504 0.37397,-0.0877 0.43794,-0.11176 0.064,-0.0241 0.10516,-0.0474 0.12334,-0.0701 0.0182,-0.0226 0.0285,-0.0626 0.0312,-0.1196 0.004,-0.057 -0.0143,-0.19361 -0.0524,-0.40972 l 0.016,-0.0255 0.15026,-0.0319 0.0255,0.016 c 0.0929,0.51629 0.14598,0.80549 0.15917,0.86759 0.0143,0.0681 0.0836,0.35389 0.20721,0.8574 l -0.016,0.0285 -0.15026,0.0319 -0.026,-0.0194 c -0.0337,-0.13939 -0.0627,-0.2463 -0.087,-0.32074 -0.0237,-0.0724 -0.0503,-0.12334 -0.0795,-0.15275 -0.0292,-0.0294 -0.0861,-0.0403 -0.1704,-0.033 -0.0823,0.007 -0.19582,0.025 -0.34042,0.0535 l -0.69248,0.14081 -1.39145,0.2955 -0.58472,0.13047 c -0.22599,0.0501 -0.37098,0.0872 -0.43495,0.11123 -0.064,0.0241 -0.10517,0.0474 -0.12335,0.07 -0.0178,0.0248 -0.0292,0.0649 -0.0342,0.12032 -0.004,0.057 0.0143,0.19362 0.0524,0.40975 l -0.0125,0.0278 -0.15026,0.0319 -0.0292,-0.0191 c -0.0929,-0.51629 -0.14598,-0.8055 -0.15917,-0.8676 -0.0143,-0.064 -0.0827,-0.34984 -0.2072,-0.8574 l 0.0194,-0.026 0.15026,-0.0319 0.0225,0.0178 c 0.048,0.18664 0.0847,0.30972 0.1098,0.36927 0.0251,0.0595 0.049,0.0973 0.0713,0.11354 0.0242,0.016 0.069,0.0241 0.13404,0.025 0.0651,8.9e-4 0.20486,-0.0214 0.4192,-0.067 l 0.63538,-0.12852 0.68521,-0.14545 c -0.1139,-0.59559 -0.19623,-1.0126 -0.24681,-1.25102 -0.0519,-0.24443 -0.14456,-0.65186 -0.27844,-1.22231 l -0.6852,0.14545 -0.5854,0.12727 c -0.22596,0.0501 -0.37094,0.0872 -0.43492,0.11141 -0.064,0.0241 -0.10516,0.0474 -0.12334,0.07 -0.0178,0.0248 -0.0291,0.0658 -0.0335,0.12334 -0.004,0.057 0.0143,0.19262 0.0519,0.40672 l -0.0125,0.0278 -0.15026,0.0319 -0.0291,-0.0191 c -0.0925,-0.51429 -0.14545,-0.80349 -0.15917,-0.86761 -0.0125,-0.062 -0.082,-0.34683 -0.20657,-0.85439 l 0.0191,-0.029 0.15026,-0.0319 0.0232,0.0201 c 0.0476,0.18463 0.0841,0.30671 0.10926,0.36627 0.0251,0.0595 0.049,0.0973 0.0713,0.11354 0.0248,0.0178 0.0693,0.0262 0.13404,0.025 0.0651,8.8e-4 0.20493,-0.0205 0.41981,-0.064 l 0.63475,-0.13154 1.39142,-0.2955 0.58478,-0.13048 c 0.22796,-0.0504 0.37394,-0.0877 0.43793,-0.11176 0.0643,-0.0221 0.10552,-0.0455 0.12335,-0.0701 0.0182,-0.0228 0.0285,-0.0627 0.0312,-0.1196 0.004,-0.057 -0.0143,-0.19261 -0.0519,-0.40672 l 0.016,-0.0287 0.15026,-0.0319 z m -18.46708,-14.45657 c -11.499114,0 -20.829433,9.33032 -20.829433,20.82943 0,11.49909 9.330319,20.82943 20.829433,20.82943 11.4991,0 20.82944,-9.33034 20.82944,-20.82943 0,-11.49911 -9.33034,-20.82943 -20.82944,-20.82943 z m 0,0.7851 c 11.07478,0 20.04431,8.96953 20.04431,20.04433 0,11.0748 -8.96953,20.04433 -20.04431,20.04433 -11.074799,0 -20.044329,-8.96953 -20.044329,-20.04433 0,-11.0748 8.96953,-20.04433 20.044329,-20.04433 z m 0.23101,8.78034 c 0.22963,-0.27338 0.51589,-0.44859 0.87085,-0.50461 -0.42221,0.38198 -0.66678,0.87376 -0.77556,1.35035 0.44713,-0.69222 1.32201,-1.30357 2.32509,-1.25428 -1.15084,0.49387 -1.82852,1.29751 -2.20763,2.29677 1.1355,-1.94602 2.69277,-2.06632 4.09704,-1.81071 -1.91258,0.11016 -3.18649,1.18839 -3.98685,2.78889 1.48069,-1.69289 3.23095,-2.96653 5.81158,-1.95447 -2.95033,-0.31872 -4.445,1.13381 -5.71426,2.81817 2.14917,-1.72425 4.34618,-3.23155 7.23864,-1.89325 -2.93051,-0.70614 -5.18563,0.86967 -7.13547,2.80895 3.82435,-2.98229 6.43935,-2.79544 8.23225,-1.87579 -3.57323,-0.87077 -5.99977,0.72824 -8.27699,2.71633 5.70392,-3.78727 7.84396,-2.4613 9.7481,-1.09468 -3.0883,-1.72307 -6.0359,-0.99975 -9.55242,1.59368 4.73652,-2.7874 8.52462,-2.91996 10.75803,0.41433 -2.7181,-2.77208 -6.41162,-2.54428 -10.67947,0.2829 4.80673,-2.57436 8.6637,-2.76615 11.11132,1.67885 -2.22047,-2.77385 -4.96744,-4.58717 -11.03758,-1.02424 4.5651,-2.36189 8.92005,-2.45693 11.11679,2.68906 -2.46053,-3.87128 -6.00569,-4.99773 -11.04569,-2.05805 5.4407,-2.47226 8.91911,-0.96157 10.81027,3.11596 -2.75621,-4.193 -6.52708,-4.48072 -10.74238,-2.51335 4.6086,-1.67079 8.32532,-1.05213 10.43203,3.69933 -2.71856,-4.27818 -6.30939,-4.69849 -10.36189,-3.07687 5.39876,-1.53228 8.32794,0.45071 10.10322,4.0762 -2.49994,-3.61859 -5.82094,-4.84049 -10.03374,-3.45942 3.91301,-0.8156 7.29536,0.0834 9.62483,4.38509 -2.41111,-3.09899 -5.38506,-4.83122 -9.54563,-3.68221 4.75019,-0.58634 7.1206,1.66805 9.06261,4.4338 -2.29783,-2.38548 -5.04045,-4.47628 -8.98543,-3.74903 0,0 0.18864,0.34072 0.18864,0.52743 0,0.18671 -0.18864,0.34072 -0.18864,0.52743 0,0.18671 0.18864,0.34072 0.18864,0.52743 0,0.18673 -0.18864,0.34072 -0.18864,0.52745 0,0.18671 0.18864,0.3407 0.18864,0.52743 0,0.18671 -0.18864,0.34072 -0.18864,0.52743 0,0.18671 0.18864,0.34072 0.18864,0.52743 0,0.18671 -0.18864,0.34072 -0.18864,0.52743 0,0.18672 0.18864,0.34072 0.18864,0.52743 0,0.18672 -0.18864,0.34072 -0.18864,0.52743 0,0.18672 0.18864,0.34072 0.18864,0.52743 0,0.18674 -0.18864,0.34072 -0.18864,0.52745 0,0.18672 0.18864,0.3407 0.18864,0.52743 0,0.18672 -0.18864,0.34072 -0.18864,0.52743 0,0.18672 0.18864,0.34072 0.18864,0.52744 0,0.18671 -0.18864,0.52743 -0.18864,0.52743 2.02247,0.48919 3.44393,1.62164 3.8789,3.45856 h -5.22347 -5.223486 c 0.434975,-1.83692 1.856456,-2.96937 3.878926,-3.45856 0,0 -0.18864,-0.34072 -0.18864,-0.52743 0,-0.18672 0.18864,-0.34072 0.18864,-0.52744 0,-0.18671 -0.18864,-0.34071 -0.18864,-0.52743 0,-0.18673 0.18864,-0.34071 0.18864,-0.52743 0,-0.18673 -0.18864,-0.34071 -0.18864,-0.52745 0,-0.18671 0.18864,-0.34071 0.18864,-0.52743 0,-0.18671 -0.18864,-0.34071 -0.18864,-0.52743 0,-0.18671 0.18864,-0.34071 0.18864,-0.52743 0,-0.18671 -0.18864,-0.34072 -0.18864,-0.52743 0,-0.18671 0.18864,-0.34072 0.18864,-0.52743 0,-0.18671 -0.18864,-0.34072 -0.18864,-0.52743 0,-0.18673 0.18864,-0.34072 0.18864,-0.52743 0,-0.18673 -0.18864,-0.34072 -0.18864,-0.52745 0,-0.18671 0.18864,-0.34072 0.18864,-0.52743 0,-0.18671 -0.18864,-0.34072 -0.18864,-0.52743 0,-0.18671 0.18864,-0.52743 0.18864,-0.52743 -3.944984,-0.72725 -6.687606,1.36355 -8.985432,3.74903 1.941993,-2.76575 4.312401,-5.02014 9.062592,-4.4338 -4.160552,-1.14901 -7.134502,0.58322 -9.545604,3.68221 2.329465,-4.30158 5.711813,-5.20069 9.624804,-4.38509 -4.212783,-1.38107 -7.533797,-0.15917 -10.033718,3.45942 1.775279,-3.62549 4.704436,-5.60848 10.103198,-4.0762 -4.052504,-1.62162 -7.643311,-1.20131 -10.361869,3.07687 2.10671,-4.75146 5.82343,-5.37012 10.432009,-3.69933 -4.215279,-1.96737 -7.98615,-1.67965 -10.742336,2.51335 1.891139,-4.07753 5.369544,-5.58822 10.810246,-3.11596 -5.040004,-2.93968 -8.58518,-1.81323 -11.045692,2.05805 2.196743,-5.14599 6.551692,-5.05095 11.116772,-2.68906 -6.070121,-3.56293 -8.81711,-1.74961 -11.037577,1.02424 2.447642,-4.445 6.304589,-4.25321 11.111337,-1.67885 -4.267892,-2.82718 -7.961369,-3.05498 -10.679482,-0.2829 2.233426,-3.33429 6.021516,-3.20173 10.758032,-0.41433 -3.51651,-2.59343 -6.464133,-3.31675 -9.55241,-1.59368 1.904116,-1.36662 4.044177,-2.69259 9.74809,1.09468 -2.27722,-1.98809 -4.703756,-3.58708 -8.276988,-2.71633 1.792908,-0.91965 4.407888,-1.1065 8.232238,1.87579 -1.94982,-1.93928 -4.204941,-3.51509 -7.135453,-2.80893 2.892438,-1.33832 5.089483,0.16898 7.238613,1.89323 -1.26923,-1.68436 -2.7639,-3.13689 -5.714233,-2.81817 2.580613,-1.01206 4.330883,0.26158 5.811543,1.95447 -0.80034,-1.6005 -2.07424,-2.67873 -3.986836,-2.78889 1.404316,-0.25561 2.961566,-0.13529 4.097066,1.81071 -0.37912,-0.99926 -1.05681,-1.8029 -2.20764,-2.29677 1.00308,-0.0494 1.87797,0.56206 2.3251,1.25428 -0.10873,-0.47659 -0.35334,-0.96837 -0.77557,-1.35035 0.35496,0.056 0.64121,0.23123 0.87086,0.50461 l 0.0829,-0.6011 z m -0.23101,-3.24342 c -8.008375,0 -14.507412,6.49904 -14.507412,14.50741 0,8.00837 6.499037,14.50741 14.507412,14.50741 8.00837,0 14.50741,-6.49904 14.50741,-14.50741 0,-8.00837 -6.49904,-14.50741 -14.50741,-14.50741 z m 0,0.65427 c 7.65477,0 13.85314,6.19837 13.85314,13.85314 0,7.65477 -6.19837,13.85314 -13.85314,13.85314 -7.65477,0 -13.853159,-6.19837 -13.853159,-13.85314 0,-7.65477 6.198389,-13.85314 13.853159,-13.85314 z" />
  </g>
</svg>
